<svg xmlns="http://www.w3.org/2000/svg" xmlns:xlink="http://www.w3.org/1999/xlink" width="500" zoomAndPan="magnify" viewBox="0 0 375 374.999991" height="500" preserveAspectRatio="xMidYMid meet" version="1.2"><defs><clipPath id="32b8e3630c"><path d="M 75 0 L 300 0 C 319.890625 0 338.96875 7.902344 353.03125 21.96875 C 367.097656 36.03125 375 55.109375 375 75 L 375 300 C 375 319.890625 367.097656 338.96875 353.03125 353.03125 C 338.96875 367.097656 319.890625 375 300 375 L 75 375 C 55.109375 375 36.03125 367.097656 21.96875 353.03125 C 7.902344 338.96875 0 319.890625 0 300 L 0 75 C 0 55.109375 7.902344 36.03125 21.96875 21.96875 C 36.03125 7.902344 55.109375 0 75 0 Z M 75 0 "/></clipPath><clipPath id="da36700024"><path d="M 141 46.875 L 263 46.875 L 263 328 L 141 328 Z M 141 46.875 "/></clipPath></defs><g id="f95f264243"><rect x="0" width="375" y="0" height="374.999991" style="fill:#ffffff;fill-opacity:1;stroke:none;"/><rect x="0" width="375" y="0" height="374.999991" style="fill:#f7f7f7;fill-opacity:1;stroke:none;"/><g clip-rule="nonzero" clip-path="url(#32b8e3630c)"><rect x="0" width="375" y="0" height="374.999991" style="fill:#0f1a1e;fill-opacity:1;stroke:none;"/></g><g clip-rule="nonzero" clip-path="url(#da36700024)"><path style=" stroke:none;fill-rule:nonzero;fill:#25c379;fill-opacity:1;" d="M 174.855469 327.667969 C 174.855469 327.667969 316.703125 270.496094 240.515625 188.714844 C 180.1875 123.960938 186.4375 46.871094 186.4375 46.871094 C 186.4375 46.871094 129.566406 123.582031 143.527344 171.347656 C 157.488281 219.113281 213.9375 249.507812 174.855469 327.667969 Z M 174.855469 327.667969 "/></g><path style=" stroke:none;fill-rule:nonzero;fill:#25c379;fill-opacity:1;" d="M 163.277344 327.667969 C 163.277344 327.667969 180.644531 273.390625 163.277344 242.996094 C 145.90625 212.597656 129.988281 198.125 132.15625 173.519531 C 132.15625 173.519531 103.210938 206.085938 108.273438 238.652344 C 113.339844 271.21875 153.144531 287.140625 163.277344 327.667969 Z M 163.277344 327.667969 "/></g></svg>